<svg width="187" height="50" viewBox="0 0 187 50" fill="none" xmlns="http://www.w3.org/2000/svg">
<g opacity="0.8">
<path d="M32.9657 1.26698C32.9657 1.01539 32.744 0.811523 32.4753 0.811523H15.9807C8.31818 1.39277 2.29658 7.01441 1.66943 14.2106L1.67415 16.6181C2.3013 23.7579 8.33232 29.3622 16.0185 29.9521C16.0326 29.9521 16.0467 29.9521 16.0609 29.9521H32.4706C32.7393 29.9521 32.961 29.7482 32.961 29.4966C32.961 26.4125 32.9657 23.3285 32.9704 20.24C32.9798 14.3972 32.9893 7.78219 32.9657 1.26698Z" fill="white"/>
<path d="M104.597 14.1415C103.97 7.00601 97.9438 1.40172 90.2152 0.816132H73.8009C73.5322 0.816132 73.3105 1.02 73.3105 1.27159V29.4926C73.3105 29.7442 73.5322 29.948 73.8009 29.948H90.2294C90.2435 29.948 90.2577 29.948 90.2671 29.9437C97.9438 29.3538 103.97 23.7321 104.602 16.5446L104.597 14.1415Z" fill="white"/>
<path d="M68.2979 0.816132H37.9874C37.7139 0.816132 37.4969 1.02 37.4969 1.27159V29.4926C37.4969 29.7442 37.7139 29.948 37.9874 29.948H68.2979C68.5714 29.948 68.7883 29.7442 68.7883 29.4926V1.27159C68.7883 1.02 68.5667 0.816132 68.2979 0.816132Z" fill="white"/>
<path d="M27.458 19.3031C27.4203 19.1816 27.326 19.0775 27.1987 19.0211C26.9959 18.93 26.8215 18.8519 26.68 18.7869C26.4348 18.6741 26.199 18.557 25.968 18.4442C25.7416 18.3314 25.4917 18.21 25.2182 18.0755L24.5628 17.7588C24.3411 17.6504 24.0629 17.7198 23.9262 17.915C23.4735 18.5656 22.8747 19.1122 22.139 19.5329C21.2761 20.0274 20.3048 20.279 19.2579 20.279C18.494 20.279 17.7631 20.1402 17.0888 19.8756C16.4145 19.6067 15.8204 19.2336 15.3111 18.7608C14.8066 18.288 14.4058 17.7328 14.1134 17.1082C13.8258 16.4836 13.6796 15.8025 13.6796 15.0868C13.6796 14.3884 13.8258 13.7118 14.1134 13.0785C14.401 12.4452 14.8066 11.8899 15.3111 11.4258C15.8157 10.966 16.4098 10.5886 17.0841 10.311C17.7584 10.0334 18.4893 9.8946 19.2532 9.8946C20.267 9.8946 21.2007 10.1288 22.04 10.593C22.7473 10.9834 23.3273 11.4865 23.7659 12.0851C23.9026 12.2717 24.1667 12.3411 24.3836 12.2413C24.6476 12.1242 24.874 12.0201 25.0673 11.929L25.8312 11.5733C26.0576 11.4692 26.2933 11.3521 26.5432 11.2306L27.0572 10.979C27.1798 10.9183 27.2694 10.8142 27.3024 10.6927C27.3401 10.5713 27.3166 10.4368 27.2411 10.3327C26.8969 9.82954 26.4961 9.35239 26.0528 8.91862C25.487 8.36774 24.841 7.88192 24.1337 7.48285C23.4264 7.08378 22.653 6.77147 21.8325 6.55025C21.0073 6.32902 20.1397 6.22058 19.2532 6.22058C17.947 6.22058 16.6975 6.45482 15.5422 6.91895C14.3916 7.38308 13.3731 8.02506 12.5196 8.83187C11.6661 9.63434 10.9777 10.5886 10.4825 11.66C9.9827 12.7358 9.73279 13.8896 9.73279 15.0912C9.73279 16.31 9.9827 17.4725 10.4825 18.544C10.9777 19.6197 11.6661 20.5653 12.5196 21.3591C13.3731 22.1529 14.3916 22.7906 15.5469 23.259C16.6975 23.7232 17.9423 23.9574 19.2532 23.9574C20.1633 23.9574 21.0545 23.8403 21.8986 23.6147C22.7379 23.3848 23.5301 23.0595 24.2516 22.6474C24.9683 22.231 25.6237 21.7278 26.1943 21.1552C26.647 20.6998 27.0525 20.2053 27.3967 19.6718C27.4816 19.559 27.4958 19.4245 27.458 19.3031Z" fill="#006633"/>
<path d="M27.6892 19.598C27.6514 19.4766 27.5571 19.3725 27.4298 19.3161C27.2271 19.225 27.0526 19.1469 26.9064 19.0819C26.6612 18.9691 26.4254 18.852 26.1944 18.7392C25.968 18.6264 25.7181 18.5006 25.4446 18.3705L24.7892 18.0538C24.5675 17.9497 24.2893 18.0148 24.1526 18.21C23.6999 18.865 23.1011 19.4072 22.3702 19.8279C21.5025 20.3268 20.5359 20.574 19.489 20.574C18.7251 20.574 17.9942 20.4396 17.3199 20.1706C16.6503 19.9017 16.0515 19.5243 15.5422 19.0558C15.0377 18.5874 14.6369 18.0278 14.3492 17.4032C14.0616 16.7785 13.9154 16.0975 13.9154 15.3818C13.9154 14.6834 14.0616 14.0068 14.3492 13.3735C14.6369 12.7401 15.0424 12.1806 15.5469 11.7208C16.0468 11.261 16.6456 10.8836 17.3199 10.606C17.9942 10.3327 18.7251 10.1896 19.489 10.1896C20.4981 10.1896 21.4365 10.4238 22.2759 10.888C22.9832 11.2783 23.5632 11.7815 24.0017 12.3801C24.1384 12.5666 24.4025 12.6317 24.6194 12.5363C24.8835 12.4192 25.1098 12.3151 25.2984 12.224L26.0623 11.8683C26.2887 11.7642 26.5245 11.6471 26.7744 11.5213L27.2836 11.2697C27.4062 11.2089 27.4958 11.1092 27.5288 10.9834C27.5666 10.8619 27.543 10.7275 27.4723 10.6234C27.128 10.1202 26.7272 9.64304 26.284 9.20927C25.7181 8.65838 25.0721 8.1769 24.3648 7.77783C23.6575 7.37876 22.8841 7.06645 22.0637 6.84523C21.2385 6.62834 20.3708 6.51556 19.4843 6.51556C18.1781 6.51556 16.9286 6.7498 15.7733 7.21393C14.6227 7.67807 13.6042 8.32004 12.7507 9.12685C11.8972 9.92933 11.2087 10.8836 10.7136 11.955C10.2138 13.0264 9.96387 14.1846 9.96387 15.3861C9.96387 16.605 10.2185 17.7675 10.7136 18.8389C11.2087 19.9147 11.8972 20.8603 12.7507 21.6541C13.6042 22.4479 14.618 23.0855 15.778 23.554C16.9286 24.0181 18.1781 24.2524 19.4843 24.2524C20.3944 24.2524 21.2856 24.1353 22.1297 23.9097C22.969 23.6841 23.7659 23.3588 24.4827 22.9424C25.1994 22.526 25.8549 22.0228 26.4301 21.4459C26.8828 20.9904 27.2884 20.4959 27.6326 19.9667C27.7127 19.854 27.7269 19.7238 27.6892 19.598Z" fill="#4C9C2E"/>
<path d="M62.0692 6.22058H57.467C57.2548 6.22058 57.0709 6.34637 57.0001 6.5329L52.7987 18.3444L48.6209 6.5329C48.5549 6.34637 48.3663 6.22058 48.1541 6.22058H43.632C43.3585 6.22058 43.1416 6.42445 43.1416 6.67604V23.2547C43.1416 23.5063 43.3585 23.7101 43.632 23.7101H46.0699C46.3386 23.7101 46.5603 23.5063 46.5603 23.2547V11.4345C46.5791 11.4345 46.6168 11.4518 46.6121 11.4345L51.1012 23.4022C51.1719 23.5843 51.3558 23.7101 51.5633 23.7101H54.053C54.2605 23.7101 54.4444 23.5887 54.5151 23.4022L59.056 11.313V23.2547C59.056 23.5063 59.2777 23.7101 59.5464 23.7101H62.0645C62.3332 23.7101 62.5549 23.5063 62.5549 23.2547V6.67604C62.5596 6.42445 62.3427 6.22058 62.0692 6.22058Z" fill="#153D8A"/>
<path d="M62.3566 6.63702H57.7544C57.5422 6.63702 57.3583 6.76282 57.2876 6.94934L53.0862 18.7652L48.9084 6.95368C48.8423 6.76716 48.6537 6.64136 48.4415 6.64136H43.9195C43.6507 6.64136 43.4291 6.84523 43.4291 7.09682V23.6755C43.4291 23.9271 43.6507 24.1309 43.9195 24.1309H46.362C46.6355 24.1309 46.8524 23.9271 46.8524 23.6755V11.8553C46.8713 11.8553 46.909 11.8726 46.9043 11.8553L51.3934 23.8186C51.4641 24.0008 51.648 24.1266 51.8555 24.1266H54.3405C54.548 24.1266 54.7366 24.0051 54.8026 23.8186L59.3482 11.7295V23.6711C59.3482 23.9227 59.5651 24.1266 59.8386 24.1266H62.3566C62.6301 24.1266 62.847 23.9227 62.847 23.6711V7.09248C62.847 6.8409 62.6301 6.63702 62.3566 6.63702Z" fill="#006EB7"/>
<path d="M95.5294 11.0702C95.1051 9.99876 94.5015 9.09219 93.7423 8.37647C92.9831 7.66075 92.0731 7.11854 91.0357 6.76285C89.9983 6.40716 88.8619 6.22498 87.6547 6.22498H80.0393C79.7706 6.22498 79.549 6.42885 79.549 6.68043V23.2547C79.549 23.5063 79.7659 23.7102 80.0393 23.7102H87.6547C89.0835 23.7102 90.3472 23.4846 91.4035 23.0379C92.4597 22.5911 93.3556 21.9664 94.0582 21.19C94.7656 20.4092 95.3031 19.4679 95.6521 18.3965C96.001 17.3208 96.1802 16.1323 96.1802 14.87C96.1755 13.4212 95.9585 12.1459 95.5294 11.0702ZM83.6796 9.45222H86.6268C87.6406 9.45222 88.5035 9.58668 89.192 9.85562C89.8804 10.1246 90.4415 10.5149 90.8612 11.0181C91.2809 11.5213 91.5827 12.1329 91.7666 12.84C91.9505 13.5513 92.0448 14.3538 92.0448 15.23C92.0448 16.1886 91.9127 17.0128 91.6487 17.6808C91.3893 18.3445 91.0357 18.891 90.5971 19.3074C90.1633 19.7239 89.6588 20.0232 89.0976 20.201C88.5412 20.3832 87.9565 20.4699 87.3624 20.4699H83.6796V9.45222Z" fill="#153D8A"/>
<path d="M95.9304 11.4866C95.5013 10.4152 94.9025 9.50863 94.1433 8.79291C93.3841 8.07719 92.4741 7.53498 91.4367 7.17929C90.404 6.8236 89.2629 6.64142 88.0558 6.64142H80.4405C80.1717 6.64142 79.9501 6.84529 79.9501 7.09688V23.6755C79.9501 23.9271 80.167 24.131 80.4405 24.131H88.0558C89.4845 24.131 90.7482 23.9054 91.8045 23.4586C92.8607 23.0119 93.7519 22.3872 94.4592 21.6108C95.1665 20.83 95.6994 19.8931 96.053 18.8173C96.402 17.7416 96.5764 16.5574 96.5764 15.2908C96.5764 13.8376 96.3595 12.5624 95.9304 11.4866ZM84.0854 9.86866H87.0278C88.0416 9.86866 88.9045 10.0031 89.593 10.2721C90.2814 10.5367 90.8425 10.9314 91.2622 11.4346C91.6819 11.9377 91.9837 12.5494 92.1723 13.2607C92.3562 13.9678 92.4505 14.7746 92.4505 15.6508C92.4505 16.6094 92.3185 17.4336 92.0544 18.1016C91.795 18.7653 91.4414 19.3161 91.0029 19.7282C90.5691 20.1446 90.0645 20.4439 89.5034 20.6218C88.9517 20.7996 88.367 20.8907 87.7681 20.8907H84.0854V9.86866Z" fill="#006EB7"/>
<path d="M115.032 2.51965H116.786L119.101 8.86569H117.385L116.965 7.53402H114.839L114.428 8.86569H112.712L115.032 2.51965ZM116.579 6.29344L116.197 5.06154C116.074 4.66247 115.918 3.96844 115.918 3.96844H115.9C115.9 3.96844 115.749 4.66247 115.621 5.06154L115.23 6.29344H116.579Z" fill="white"/>
<path d="M119.96 2.52063H121.629V5.05818H124.105V2.52063H125.774V8.86668H124.105V6.38118H121.629V8.86668H119.96V2.52063Z" fill="white"/>
<path d="M128.947 2.52063H130.702L133.017 8.86668H131.301L130.881 7.53501H128.754L128.344 8.86668H126.627L128.947 2.52063ZM130.489 6.29442L130.107 5.06252C129.985 4.66345 129.829 3.96942 129.829 3.96942H129.81C129.81 3.96942 129.66 4.66345 129.532 5.06252L129.141 6.29442H130.489Z" fill="white"/>
<path d="M134.672 4.60705V2.52063H139.246V8.86666H137.582V3.8523H136.257V4.6244C136.257 7.74753 135.229 8.93606 133.314 8.93606V7.52631C134.12 7.43088 134.672 6.88 134.672 4.60705Z" fill="white"/>
<path d="M140.849 2.52063H142.519V5.48327C142.519 5.88234 142.443 6.5677 142.443 6.5677H142.462C142.462 6.5677 142.769 5.90403 143.033 5.48327L144.919 2.52063H146.607V8.86668H144.938V5.91271C144.938 5.51364 145.013 4.82828 145.013 4.82828H144.994C144.994 4.82828 144.688 5.49195 144.424 5.91271L142.528 8.86668H140.849V2.52063Z" fill="white"/>
<path d="M148.502 6.98409C148.847 7.2964 149.379 7.61305 149.95 7.61305C150.53 7.61305 150.846 7.3658 150.846 6.90167C150.846 6.52863 150.596 6.28138 150.044 6.28138H149.224V5.04948H149.889C150.393 5.04948 150.681 4.74584 150.681 4.41184C150.681 4.02145 150.384 3.74817 149.879 3.74817C149.45 3.74817 148.936 3.92602 148.469 4.27303L147.833 3.16259C148.587 2.577 149.412 2.4165 150.195 2.4165C151.195 2.4165 152.378 2.97606 152.378 4.20797C152.378 4.9367 151.93 5.35312 151.492 5.59169V5.60904C152.147 5.82159 152.558 6.3291 152.558 7.01879C152.558 8.25069 151.426 8.97075 150.129 8.97075C149.196 8.97075 148.29 8.63241 147.635 8.00344L148.502 6.98409Z" fill="white"/>
<path d="M153.798 2.52063H155.467V4.48127H156.533C157.858 4.48127 158.754 5.4052 158.754 6.68048C158.754 7.9601 157.858 8.86234 156.533 8.86234H153.798V2.52063ZM156.222 7.53501C156.773 7.53501 157.061 7.18799 157.061 6.68482C157.061 6.17731 156.773 5.81728 156.193 5.81728H155.467V7.53934H156.222V7.53501ZM159.518 2.52063H161.187V8.86668H159.518V2.52063Z" fill="white"/>
<path d="M113.755 18.0148C114.24 18.4139 114.91 18.7002 115.631 18.7002C116.659 18.7002 117.263 18.1406 117.442 17.4423H114.632V16.2017H117.451C117.272 15.4816 116.631 14.9524 115.631 14.9524C114.957 14.9524 114.382 15.1997 113.811 15.6638L113.038 14.4926C113.693 13.855 114.688 13.5514 115.697 13.5514C117.918 13.5514 119.224 15.0175 119.224 16.8003C119.224 18.7089 117.739 20.11 115.622 20.11C114.391 20.11 113.542 19.6328 112.934 19.134L113.755 18.0148Z" fill="white"/>
<path d="M120.455 13.6511H122.124V16.0976H122.813L124.223 13.6468H126.015L124.176 16.6832V16.7005L126.118 19.9928H124.251L122.813 17.4206H122.124V19.9928H120.455V13.6511Z" fill="white"/>
<path d="M130.07 13.5427C130.985 13.5427 131.956 13.8246 132.626 14.4406L131.852 15.6117C131.414 15.2561 130.758 14.9654 130.145 14.9654C128.783 14.9654 128.222 15.8633 128.222 16.7742C128.222 17.7155 128.83 18.6828 130.145 18.6828C130.82 18.6828 131.489 18.3358 131.956 17.902L132.814 19.0385C132.215 19.6154 131.32 20.1012 130.07 20.1012C127.877 20.1012 126.496 18.6915 126.496 16.8089C126.496 14.9611 127.967 13.5427 130.07 13.5427Z" fill="white"/>
<path d="M133.833 13.6511H139.59V19.9971H137.921V14.9741H135.502V19.9971H133.833V13.6511Z" fill="white"/>
<path d="M141.194 13.6511H145.461V14.9827H142.858V16.1366H144.938V17.4682H142.858V18.6654H145.593V19.9971H141.189V13.6511H141.194Z" fill="white"/>
<path d="M146.852 13.6511H149.681C151.006 13.6511 151.902 14.5576 151.902 15.8329C151.902 17.1125 151.006 18.0321 149.681 18.0321H148.521V19.9928H146.852V13.6511ZM149.337 16.7005C149.917 16.7005 150.205 16.3361 150.205 15.8329C150.205 15.3254 149.917 14.9827 149.365 14.9827H148.516V16.7048H149.337V16.7005Z" fill="white"/>
<path d="M154.458 14.9827H152.388V13.6511H158.193V14.9827H156.123V19.9971H154.453V14.9827H154.458Z" fill="white"/>
<path d="M159.202 13.6511H160.871V16.1886H163.347V13.6511H165.016V19.9971H163.347V17.5116H160.871V19.9971H159.202V13.6511Z" fill="white"/>
<path d="M169.807 13.5427C171.867 13.5427 173.371 14.9611 173.371 16.7829C173.371 18.6481 171.867 20.1012 169.807 20.1012C167.746 20.1012 166.242 18.6438 166.242 16.7829C166.246 14.9611 167.751 13.5427 169.807 13.5427ZM169.807 18.6828C170.825 18.6828 171.646 17.8673 171.646 16.7829C171.646 15.7462 170.825 14.9654 169.807 14.9654C168.788 14.9654 167.968 15.7462 167.968 16.7829C167.968 17.863 168.788 18.6828 169.807 18.6828Z" fill="white"/>
<path d="M174.602 13.6511H178.775V14.9827H176.272V19.9971H174.602V13.6511Z" fill="white"/>
<path d="M182.788 13.5427C184.849 13.5427 186.353 14.9611 186.353 16.7829C186.353 18.6481 184.849 20.1012 182.788 20.1012C180.727 20.1012 179.223 18.6438 179.223 16.7829C179.223 14.9611 180.727 13.5427 182.788 13.5427ZM182.788 18.6828C183.806 18.6828 184.627 17.8673 184.627 16.7829C184.627 15.7462 183.806 14.9654 182.788 14.9654C181.769 14.9654 180.949 15.7462 180.949 16.7829C180.949 17.863 181.769 18.6828 182.788 18.6828Z" fill="white"/>
<path d="M113.986 29.5877C114.165 29.7309 114.424 29.9087 114.74 29.9087C115.009 29.9087 115.188 29.7916 115.282 29.5791L112.651 24.7773H114.481L115.612 27.0589C115.844 27.51 115.985 27.909 115.985 27.909H116.004C116.004 27.909 116.108 27.51 116.273 27.0675L117.112 24.7773H118.866L116.857 29.5357C116.541 30.2818 116.018 31.2317 114.82 31.2317C114.221 31.2317 113.745 31.0625 113.269 30.7546L113.986 29.5877Z" fill="white"/>
<path d="M119.644 24.7773H122.473C123.799 24.7773 124.694 25.6838 124.694 26.9591C124.694 28.2387 123.799 29.1583 122.473 29.1583H121.313V31.1189H119.644V24.7773ZM122.134 27.831C122.714 27.831 123.002 27.4666 123.002 26.9634C123.002 26.4559 122.714 26.1133 122.162 26.1133H121.313V27.8353H122.134V27.831Z" fill="white"/>
<path d="M128.966 24.6732C131.027 24.6732 132.531 26.0916 132.531 27.9134C132.531 29.7786 131.027 31.2317 128.966 31.2317C126.906 31.2317 125.402 29.7742 125.402 27.9134C125.402 26.0916 126.906 24.6732 128.966 24.6732ZM128.966 29.8089C129.985 29.8089 130.806 28.9935 130.806 27.9091C130.806 26.8724 129.985 26.0916 128.966 26.0916C127.948 26.0916 127.127 26.8724 127.127 27.9091C127.127 28.9935 127.948 29.8089 128.966 29.8089Z" fill="white"/>
<path d="M133.758 24.7773H136.261C137.624 24.7773 138.576 25.3455 138.576 26.4386C138.576 26.9721 138.298 27.5143 137.784 27.7876V27.805C138.567 28.0262 138.85 28.6725 138.85 29.2321C138.85 30.6158 137.61 31.1233 136.257 31.1233H133.753V24.7773H133.758ZM136.285 27.2367C136.704 27.2367 136.884 26.9548 136.884 26.6511C136.884 26.3562 136.704 26.1089 136.257 26.1089H135.427V27.2367H136.285ZM136.426 29.7916C136.912 29.7916 137.152 29.4793 137.152 29.128C137.152 28.7766 136.921 28.4816 136.436 28.4816H135.427V29.796H136.426V29.7916Z" fill="white"/>
<path d="M140.095 24.7773H141.764V27.3148H144.24V24.7773H145.909V31.1233H144.24V28.6378H141.764V31.1233H140.095V24.7773Z" fill="white"/>
<path d="M148.177 29.0803C148.365 28.7853 148.436 28.6986 148.436 28.6986V28.6812C147.663 28.2822 147.342 27.5621 147.342 26.7987C147.342 25.8227 147.875 25.1851 148.601 24.9248C148.898 24.8164 149.228 24.773 149.926 24.773H152.298V31.119H150.629V28.9805H150.021L148.733 31.119H146.871L148.177 29.0803ZM150.624 27.6966V26.109H150.063C149.672 26.109 149.417 26.1697 149.261 26.2868C149.092 26.4213 149.03 26.6512 149.03 26.8811C149.03 27.4493 149.365 27.6966 149.898 27.6966H150.624Z" fill="white"/>
<path d="M0 42.8871H1.80616C2.82006 42.8871 3.45669 43.3036 3.45669 44.0713C3.45669 44.5528 3.18789 44.9302 2.70216 45.0994V45.1167C3.34823 45.2382 3.71606 45.6893 3.71606 46.2359C3.71606 47.0427 3.03227 47.5415 1.90991 47.5415H0.00471539V42.8871H0ZM1.73542 44.9042C2.40978 44.9042 2.75875 44.6092 2.75875 44.1104C2.75875 43.6115 2.40035 43.3686 1.69769 43.3686H0.674362V44.9042H1.73542ZM1.81559 47.047C2.64086 47.047 3.01812 46.7217 3.01812 46.2228C3.01812 45.6763 2.57955 45.3813 1.80616 45.3813H0.674362V47.047H1.81559Z" fill="white"/>
<path d="M7.37036 47.0123C8.20496 46.8908 8.56332 46.0146 8.56332 44.2926V42.8871H11.6235V47.5415H10.9493V43.4337H9.21875V44.2926C9.21875 46.4961 8.65292 47.4851 7.37036 47.5762V47.0123Z" fill="white"/>
<path d="M16.0892 44.6699H16.3863V44.5398C16.3863 43.6419 15.8582 43.3382 15.1556 43.3382C14.651 43.3382 14.1417 43.5031 13.7362 43.7807L13.4297 43.2992C13.8258 42.9825 14.5331 42.77 15.198 42.77C16.4004 42.77 17.0653 43.3903 17.0653 44.5571V47.5371H16.4193V46.9906C16.4193 46.7607 16.4476 46.6002 16.4476 46.6002H16.4287C16.1694 47.1641 15.5469 47.6455 14.7406 47.6455C13.8966 47.6455 13.0525 47.1814 13.0525 46.2878C13.0525 44.7653 15.1367 44.6699 16.0892 44.6699ZM14.8585 47.1207C15.8204 47.1207 16.3863 46.1968 16.3863 45.3813V45.1687H16.0986C15.3253 45.1687 13.7362 45.1948 13.7362 46.2315C13.7362 46.6696 14.1135 47.1207 14.8585 47.1207Z" fill="white"/>
<path d="M20.7102 41.6075L22.5586 40.8007L22.8085 41.3299L20.8799 42.1541C19.7482 42.6529 19.3521 43.3209 19.2814 44.3012H19.3003C19.7482 43.5508 20.4225 43.3209 21.1676 43.3209C22.3889 43.3209 23.2848 44.1147 23.2848 45.4681C23.2848 46.752 22.3511 47.6499 21.012 47.6499C19.371 47.6499 18.659 46.4744 18.659 44.9042C18.6543 43.3296 19.0504 42.3146 20.7102 41.6075ZM20.9884 47.0947C21.8702 47.0947 22.5869 46.4918 22.5869 45.4768C22.5869 44.4487 21.8702 43.8501 21.0261 43.8501C20.0547 43.8501 19.3852 44.5528 19.3852 45.4594C19.3899 46.4918 20.1113 47.0947 20.9884 47.0947Z" fill="white"/>
<path d="M27.1373 42.7744C28.5991 42.7744 29.778 43.8111 29.778 45.1904C29.778 46.5958 28.5944 47.6499 27.1373 47.6499C25.6755 47.6499 24.5061 46.5958 24.5061 45.1904C24.5061 43.8111 25.6755 42.7744 27.1373 42.7744ZM27.1373 47.0773C28.2124 47.0773 29.0848 46.2835 29.0848 45.1904C29.0848 44.1364 28.2124 43.3426 27.1373 43.3426C26.0622 43.3426 25.1993 44.1364 25.1993 45.1904C25.1993 46.2792 26.0622 47.0773 27.1373 47.0773Z" fill="white"/>
<path d="M31.2869 42.8871H31.9329V43.3773C31.9329 43.5812 31.9046 43.7373 31.9046 43.7373H31.9235C32.23 43.1344 32.8854 42.7744 33.6635 42.7744C35.0121 42.7744 35.8373 43.772 35.8373 45.2078C35.8373 46.687 34.9036 47.6499 33.6022 47.6499C32.8948 47.6499 32.2818 47.3072 31.9517 46.726H31.9329C31.9329 46.726 31.9612 46.8908 31.9612 47.1337V49.3893H31.2869V42.8871ZM33.5314 47.086C34.4132 47.086 35.1488 46.4007 35.1488 45.2165C35.1488 44.08 34.4934 43.3469 33.5597 43.3469C32.7251 43.3469 31.9423 43.9022 31.9423 45.2252C31.9423 46.1621 32.5082 47.086 33.5314 47.086Z" fill="white"/>
<path d="M39.9914 44.6699H40.2885V44.5398C40.2885 43.6419 39.7603 43.3382 39.0577 43.3382C38.5532 43.3382 38.0439 43.5031 37.6384 43.7807L37.3318 43.2992C37.7279 42.9825 38.4353 42.77 39.1002 42.77C40.3026 42.77 40.9675 43.3903 40.9675 44.5571V47.5371H40.3215V46.9906C40.3215 46.7607 40.3498 46.6002 40.3498 46.6002H40.3309C40.0716 47.1641 39.4491 47.6455 38.6428 47.6455C37.7987 47.6455 36.9546 47.1814 36.9546 46.2878C36.9499 44.7653 39.0342 44.6699 39.9914 44.6699ZM38.7559 47.1207C39.7179 47.1207 40.2838 46.1968 40.2838 45.3813V45.1687H39.9961C39.2228 45.1687 37.6336 45.1948 37.6336 46.2315C37.6336 46.6696 38.0109 47.1207 38.7559 47.1207Z" fill="white"/>
<path d="M43.9241 43.4424H42.1086V42.8871H46.4281V43.4424H44.5985V47.5415H43.9241V43.4424Z" fill="white"/>
<path d="M49.7948 42.7744C51.2566 42.7744 52.4354 43.8111 52.4354 45.1904C52.4354 46.5958 51.2519 47.6499 49.7948 47.6499C48.333 47.6499 47.1636 46.5958 47.1636 45.1904C47.1636 43.8111 48.333 42.7744 49.7948 42.7744ZM49.7948 47.0773C50.8699 47.0773 51.7423 46.2835 51.7423 45.1904C51.7423 44.1364 50.8699 43.3426 49.7948 43.3426C48.7197 43.3426 47.8567 44.1364 47.8567 45.1904C47.8567 46.2792 48.7197 47.0773 49.7948 47.0773Z" fill="white"/>
<path d="M53.9446 42.8871H54.5906V43.3773C54.5906 43.5812 54.5623 43.7373 54.5623 43.7373H54.5812C54.8877 43.1344 55.5431 42.7744 56.3212 42.7744C57.6698 42.7744 58.495 43.772 58.495 45.2078C58.495 46.687 57.5613 47.6499 56.2599 47.6499C55.5525 47.6499 54.9395 47.3072 54.6095 46.726H54.5906C54.5906 46.726 54.6189 46.8908 54.6189 47.1337V49.3893H53.9446V42.8871ZM56.1891 47.086C57.0709 47.086 57.8065 46.4007 57.8065 45.2165C57.8065 44.08 57.1511 43.3469 56.2174 43.3469C55.3828 43.3469 54.6 43.9022 54.6 45.2252C54.6 46.1621 55.1659 47.086 56.1891 47.086Z" fill="white"/>
<path d="M60.0461 42.8871H60.7016V45.9409C60.7016 46.2272 60.6827 46.6176 60.6733 46.6349H60.6922C60.711 46.5959 61.0081 46.2011 61.2109 45.9409L63.6629 42.8871H64.309V47.5415H63.6441V44.4791C63.6441 44.2101 63.6724 43.8414 63.6724 43.8024H63.6535C63.6441 43.8501 63.3376 44.2188 63.1489 44.4791L60.6969 47.5415H60.0509V42.8871H60.0461Z" fill="white"/>
<path d="M66.1622 42.8871H66.8177V45.9409C66.8177 46.2272 66.7988 46.6176 66.7894 46.6349H66.8082C66.8271 46.5959 67.1241 46.2011 67.3269 45.9409L69.7788 42.8871H70.4248V47.5415H69.76V44.4791C69.76 44.2101 69.7882 43.8414 69.7882 43.8024H69.7694C69.76 43.8501 69.4535 44.2188 69.2649 44.4791L66.8129 47.5415H66.1669V42.8871H66.1622Z" fill="white"/>
<path d="M75.2108 41.035H75.8945V46.9646H79.6998V41.035H80.3929V46.9646H81.1757V48.8341H80.5391V47.5372H75.2061V41.035H75.2108Z" fill="white"/>
<path d="M82.8499 41.035H83.5336V43.9933H87.5746V41.035H88.2677V47.5372H87.5746V44.5702H83.5336V47.5372H82.8499V41.035Z" fill="white"/>
<path d="M90.5217 41.0349H91.2055V45.7153C91.2055 46.058 91.1442 46.5959 91.1442 46.5959H91.163C91.163 46.5959 91.5308 46.0233 91.7713 45.698L95.3079 41.0349H95.9728V47.5371H95.289V42.8568C95.289 42.5141 95.3503 41.9762 95.3503 41.9762H95.3315C95.3315 41.9762 94.9825 42.5314 94.7468 42.8568L91.1913 47.5371H90.5217V41.0349Z" fill="white"/>
<path d="M98.2267 41.0349H98.9104V45.7153C98.9104 46.058 98.8491 46.5959 98.8491 46.5959H98.868C98.868 46.5959 99.2358 46.0233 99.4763 45.698L103.013 41.0349H103.678V47.5371H102.994V42.8568C102.994 42.5141 103.055 41.9762 103.055 41.9762H103.037C103.037 41.9762 102.688 42.5314 102.452 42.8568L98.8963 47.5371H98.2314V41.0349H98.2267Z" fill="white"/>
<path d="M108.422 46.2055C108.917 46.6956 109.813 47.0557 110.704 47.0557C112.246 47.0557 113.378 45.9626 113.505 44.5572H109.572V44.0019H113.514C113.415 42.5662 112.265 41.5121 110.713 41.5121C109.949 41.5121 109.171 41.7724 108.568 42.2538L108.2 41.7724C108.827 41.2085 109.808 40.9222 110.723 40.9222C112.779 40.9222 114.24 42.3666 114.24 44.2448C114.24 46.1404 112.75 47.6499 110.704 47.6499C109.709 47.6499 108.709 47.2899 108.04 46.6609L108.422 46.2055Z" fill="white"/>
<path d="M115.782 42.8871H119.965V47.5415H119.286V43.4424H116.457V47.5415H115.782V42.8871Z" fill="white"/>
<path d="M121.818 42.8871H122.473V45.9409C122.473 46.2272 122.455 46.6176 122.445 46.6349H122.464C122.483 46.5959 122.78 46.2011 122.983 45.9409L125.435 42.8871H126.081V47.5415H125.416V44.4791C125.416 44.2101 125.444 43.8414 125.444 43.8024H125.425C125.416 43.8501 125.109 44.2188 124.921 44.4791L122.469 47.5415H121.823V42.8871H121.818Z" fill="white"/>
<path d="M127.858 47.0036C128.702 45.9756 128.731 44.2752 128.731 43.6462V42.8871H131.819V47.0036H132.527V48.6519H131.881V47.5415H127.887V48.6519H127.241V47.0036H127.858ZM131.145 47.0036V43.425H129.396V43.7026C129.396 44.3967 129.325 45.9582 128.58 47.0036H131.145Z" fill="white"/>
<path d="M135.945 42.7744C137.327 42.7744 138.029 43.7633 138.029 44.9215C138.029 45.0213 138.02 45.1341 138.011 45.2382H134.177C134.205 46.4223 135.082 47.0773 136.115 47.0773C136.662 47.0773 137.228 46.8648 137.633 46.5221L137.94 47.0036C137.473 47.4027 136.747 47.6499 136.091 47.6499C134.601 47.6499 133.47 46.6522 133.47 45.2165C133.47 43.6896 134.592 42.7744 135.945 42.7744ZM137.346 44.735C137.308 43.7633 136.671 43.2905 135.926 43.2905C135.092 43.2905 134.366 43.798 134.21 44.735H137.346Z" fill="white"/>
<path d="M139.769 42.8871H140.486L141.986 45.7544C142.122 46.0407 142.292 46.4094 142.292 46.4094H142.311C142.311 46.4094 142.471 46.0493 142.617 45.7544L144.126 42.8871H144.834L145.249 47.5415H144.584L144.334 44.5355C144.324 44.2839 144.334 43.7287 144.334 43.7287H144.315C144.315 43.7287 144.206 44.0236 143.999 44.4053L142.608 47.0036H141.99L140.609 44.4227C140.42 44.0627 140.279 43.7287 140.279 43.7287H140.26C140.26 43.7287 140.279 44.2839 140.26 44.5355L140.01 47.5415H139.354L139.769 42.8871Z" fill="white"/>
<path d="M146.923 42.8871H147.578V45.9409C147.578 46.2272 147.559 46.6176 147.55 46.6349H147.569C147.588 46.5959 147.885 46.2011 148.088 45.9409L150.54 42.8871H151.186V47.5415H150.521V44.4791C150.521 44.2101 150.549 43.8414 150.549 43.8024H150.53C150.521 43.8501 150.214 44.2188 150.026 44.4791L147.574 47.5415H146.928V42.8871H146.923Z" fill="white"/>
<path d="M155.335 42.7744C156.797 42.7744 157.976 43.8111 157.976 45.1904C157.976 46.5958 156.792 47.6499 155.335 47.6499C153.878 47.6499 152.704 46.5958 152.704 45.1904C152.704 43.8111 153.873 42.7744 155.335 42.7744ZM155.335 47.0773C156.41 47.0773 157.282 46.2835 157.282 45.1904C157.282 44.1364 156.41 43.3426 155.335 43.3426C154.26 43.3426 153.397 44.1364 153.397 45.1904C153.397 46.2792 154.26 47.0773 155.335 47.0773Z" fill="white"/>
<path d="M158.754 47.0123C159.588 46.8908 159.947 46.0146 159.947 44.2926V42.8871H163.007V47.5415H162.333V43.4337H160.602V44.2926C160.602 46.4961 160.036 47.4851 158.754 47.5762V47.0123Z" fill="white"/>
<path d="M167.166 42.7744C168.628 42.7744 169.807 43.8111 169.807 45.1904C169.807 46.5958 168.623 47.6499 167.166 47.6499C165.704 47.6499 164.535 46.5958 164.535 45.1904C164.535 43.8111 165.704 42.7744 167.166 42.7744ZM167.166 47.0773C168.241 47.0773 169.114 46.2835 169.114 45.1904C169.114 44.1364 168.241 43.3426 167.166 43.3426C166.091 43.3426 165.228 44.1364 165.228 45.1904C165.228 46.2792 166.091 47.0773 167.166 47.0773Z" fill="white"/>
<path d="M171.316 42.8871H174.296V43.4337H171.99V47.5415H171.316V42.8871Z" fill="white"/>
<path d="M175.578 42.8871H176.234V45.9409C176.234 46.2272 176.215 46.6176 176.205 46.6349H176.224C176.243 46.5959 176.54 46.2011 176.743 45.9409L179.195 42.8871H179.841V47.5415H179.176V44.4791C179.176 44.2101 179.204 43.8414 179.204 43.8024H179.185C179.176 43.8501 178.869 44.2188 178.681 44.4791L176.229 47.5415H175.583V42.8871H175.578Z" fill="white"/>
<path d="M181.699 42.8871H182.354V45.9409C182.354 46.2272 182.335 46.6176 182.326 46.6349H182.345C182.364 46.5959 182.661 46.2011 182.864 45.9409L185.316 42.8871H185.962V47.5415H185.297V44.4791C185.297 44.2101 185.325 43.8414 185.325 43.8024H185.306C185.297 43.8501 184.99 44.2188 184.802 44.4791L182.35 47.5415H181.704V42.8871H181.699Z" fill="white"/>
</g>
</svg>
