<?xml version="1.0" encoding="utf-8"?><svg viewBox="0 0 576 512" xmlns="http://www.w3.org/2000/svg" xmlns:xlink="http://www.w3.org/1999/xlink"><style>:root>svg{display:none}:root>svg:target{display:block}</style><svg viewBox="0 0 264 512" id="icon-facebook" xmlns="http://www.w3.org/2000/svg"><path fill="#fff" d="M215.8 85H264V3.6C255.7 2.5 227.1 0 193.8 0 124.3 0 76.7 42.4 76.7 120.3V192H0v91h76.7v229h94V283h73.6l11.7-91h-85.3v-62.7c0-26.3 7.3-44.3 45.1-44.3z"/></svg><svg viewBox="0 0 448 512" id="icon-instagram" xmlns="http://www.w3.org/2000/svg"><path fill="#fff" d="M224.1 141c-63.6 0-114.9 51.3-114.9 114.9s51.3 114.9 114.9 114.9S339 319.5 339 255.9 287.7 141 224.1 141zm0 189.6c-41.1 0-74.7-33.5-74.7-74.7s33.5-74.7 74.7-74.7 74.7 33.5 74.7 74.7-33.6 74.7-74.7 74.7zm146.4-194.3c0 14.9-12 26.8-26.8 26.8-14.9 0-26.8-12-26.8-26.8s12-26.8 26.8-26.8 26.8 12 26.8 26.8zm76.1 27.2c-1.7-35.9-9.9-67.7-36.2-93.9-26.2-26.2-58-34.4-93.9-36.2-37-2.1-147.9-2.1-184.9 0-35.8 1.7-67.6 9.9-93.9 36.1s-34.4 58-36.2 93.9c-2.1 37-2.1 147.9 0 184.9 1.7 35.9 9.9 67.7 36.2 93.9s58 34.4 93.9 36.2c37 2.1 147.9 2.1 184.9 0 35.9-1.7 67.7-9.9 93.9-36.2 26.2-26.2 34.4-58 36.2-93.9 2.1-37 2.1-147.8 0-184.8zM398.8 388c-7.8 19.6-22.9 34.7-42.6 42.6-29.5 11.7-99.5 9-132.1 9s-102.7 2.6-132.1-9c-19.6-7.8-34.7-22.9-42.6-42.6-11.7-29.5-9-99.5-9-132.1s-2.6-102.7 9-132.1c7.8-19.6 22.9-34.7 42.6-42.6 29.5-11.7 99.5-9 132.1-9s102.7-2.6 132.1 9c19.6 7.8 34.7 22.9 42.6 42.6 11.7 29.5 9 99.5 9 132.1s2.7 102.7-9 132.1z"/></svg><svg viewBox="0 0 32 32" fill="none" id="icon-university" xmlns="http://www.w3.org/2000/svg"><path d="M15.5 31.001c-3.455 0-6.91.01-10.366 0-2.577-.01-4.591-1.718-5.065-4.245A4.898 4.898 0 0 1 0 25.828V5.302C0 2.202 2.192 0 5.282 0H25.76c2.991 0 5.223 2.192 5.232 5.183.01 6.842.02 13.684 0 20.526-.01 3.11-2.171 5.273-5.282 5.282-3.406.02-6.802.01-10.208.01zm.01-29.619c-3.386 0-6.772-.01-10.169 0-2.38.01-3.959 1.6-3.959 3.98V25.64c0 2.35 1.58 3.97 3.91 3.97 6.793.02 13.585.02 20.378 0 2.34 0 3.94-1.62 3.94-3.96.01-6.763.01-13.526 0-20.279 0-.434-.05-.899-.178-1.313-.484-1.63-1.896-2.666-3.663-2.676-3.416-.01-6.842 0-10.258 0z" fill="#34C2FF" fill-opacity=".95"/><path d="M15.52 11.552H8.817c-.119 0-.237.03-.346-.01-.168-.06-.444-.168-.454-.257-.01-.168.118-.415.257-.494.73-.434 1.49-.83 2.24-1.234 1.502-.81 3.012-1.62 4.503-2.448.346-.198.612-.178.958.01 2.172 1.194 4.354 2.369 6.536 3.554.128.069.266.128.375.227.237.227.148.563-.178.632-.138.03-.296.02-.444.02-2.241 0-4.492-.01-6.744 0zM6.704 24.06c-.03-.098-.05-.138-.05-.187-.059-.79-.059-.79.74-.79 3.387 0 6.764.01 10.15.01 2.133 0 4.256 0 6.388-.02.435 0 .415.247.435.534.01.306-.04.473-.425.473-5.608-.01-11.216 0-16.814 0-.138 0-.266-.02-.424-.02zM22.856 21.415v.957h-14.7v-.957h14.7zM16.547 19.815V13.25c-.108-.03-.227-.02-.296-.07-.099-.069-.217-.177-.217-.266.01-.089.158-.227.247-.237.622-.02 1.244-.02 1.876 0 .098 0 .256.138.266.217.01.08-.128.267-.207.267-.375.01-.356.247-.356.503v5.717c0 .256-.01.494.366.503.069 0 .217.188.197.267-.02.089-.168.227-.266.227-.622.02-1.244.02-1.876 0-.09 0-.237-.148-.247-.237-.01-.079.118-.197.207-.266.07-.04.188-.04.306-.06zM13.111 19.815V13.26c-.128-.03-.256-.02-.345-.088-.089-.07-.178-.188-.188-.296-.01-.06.148-.188.237-.188.642-.02 1.284-.02 1.916 0 .079 0 .227.138.227.197-.01.109-.119.277-.188.287-.365.01-.365.237-.365.503v5.717c0 .256-.02.503.355.503.07 0 .208.158.198.227-.02.099-.139.257-.217.267-.642.02-1.284.02-1.916 0-.089 0-.237-.148-.247-.237-.01-.08.129-.198.227-.257.08-.059.188-.059.306-.079zM21.326 13.25v6.565c.128.03.247.02.335.08.09.049.208.177.198.236-.03.099-.148.257-.237.257-.642.02-1.284.02-1.915 0-.09 0-.227-.158-.227-.257 0-.079.138-.168.227-.256.108-.11.296-.228.296-.336.02-2.083.01-4.167.01-6.27-.148-.04-.277-.04-.356-.098-.089-.07-.177-.198-.177-.296 0-.06.148-.188.236-.188.622-.02 1.244-.02 1.876 0 .1 0 .247.138.267.227.01.079-.119.197-.217.267-.07.049-.188.039-.316.069zM11.008 19.815c.119.02.228.02.297.07.088.068.217.187.207.266-.01.089-.158.237-.247.237-.622.02-1.244.02-1.876 0-.098 0-.247-.138-.256-.227-.01-.08.108-.208.207-.277.069-.049.188-.04.326-.059.01-.168.02-.326.02-.484v-5.617c0-.257.059-.543-.356-.553-.07 0-.207-.198-.188-.277.02-.089.178-.207.277-.217a28.23 28.23 0 0 1 1.826 0c.1 0 .257.128.267.217.01.09-.109.208-.197.287-.07.049-.178.039-.306.069v6.565z" fill="#34C2FF" fill-opacity=".95"/></svg><svg viewBox="0 0 576 512" id="icon-vk" xmlns="http://www.w3.org/2000/svg"><path fill="#fff" d="M545 117.7c3.7-12.5 0-21.7-17.8-21.7h-58.9c-15 0-21.9 7.9-25.6 16.7 0 0-30 73.1-72.4 120.5-13.7 13.7-20 18.1-27.5 18.1-3.7 0-9.4-4.4-9.4-16.9V117.7c0-15-4.2-21.7-16.6-21.7h-92.6c-9.4 0-15 7-15 13.5 0 14.2 21.2 17.5 23.4 57.5v86.8c0 19-3.4 22.5-10.9 22.5-20 0-68.6-73.4-97.4-157.4-5.8-16.3-11.5-22.9-26.6-22.9H38.8c-16.8 0-20.2 7.9-20.2 16.7 0 15.6 20 93.1 93.1 195.5C160.4 378.1 229 416 291.4 416c37.5 0 42.1-8.4 42.1-22.9 0-66.8-3.4-73.1 15.4-73.1 8.7 0 23.7 4.4 58.7 38.1 40 40 46.6 57.9 69 57.9h58.9c16.8 0 25.3-8.4 20.4-25-11.2-34.9-86.9-106.7-90.3-111.5-8.7-11.2-6.2-16.2 0-26.2.1-.1 72-101.3 79.4-135.6z"/></svg><svg viewBox="0 0 576 512" id="icon-youtube" xmlns="http://www.w3.org/2000/svg"><path fill="#fff" d="M549.655 124.083c-6.281-23.65-24.787-42.276-48.284-48.597C458.781 64 288 64 288 64S117.22 64 74.629 75.486c-23.497 6.322-42.003 24.947-48.284 48.597-11.412 42.867-11.412 132.305-11.412 132.305s0 89.438 11.412 132.305c6.281 23.65 24.787 41.5 48.284 47.821C117.22 448 288 448 288 448s170.78 0 213.371-11.486c23.497-6.321 42.003-24.171 48.284-47.821 11.412-42.867 11.412-132.305 11.412-132.305s0-89.438-11.412-132.305zm-317.51 213.508V175.185l142.739 81.205-142.739 81.201z"/></svg></svg>